<?xml version="1.0" encoding="UTF-8" standalone="no"?>
<svg
   xmlns:dc="http://purl.org/dc/elements/1.1/"
   xmlns:cc="http://creativecommons.org/ns#"
   xmlns:rdf="http://www.w3.org/1999/02/22-rdf-syntax-ns#"
   xmlns:svg="http://www.w3.org/2000/svg"
   xmlns="http://www.w3.org/2000/svg"
   xmlns:sodipodi="http://sodipodi.sourceforge.net/DTD/sodipodi-0.dtd"
   xmlns:inkscape="http://www.inkscape.org/namespaces/inkscape"
   width="24"
   height="24"
   viewBox="0 0 24 24"
   version="1.1"
   id="svg6"
   sodipodi:docname="logo2.svg"
   inkscape:version="0.92.4 5da689c313, 2019-01-14"
   inkscape:export-filename="/home/emeric/Dev/perso/BackMeUp/assets/logos/logo2.png"
   inkscape:export-xdpi="4096"
   inkscape:export-ydpi="4096">
  <metadata
     id="metadata12">
    <rdf:RDF>
      <cc:Work
         rdf:about="">
        <dc:format>image/svg+xml</dc:format>
        <dc:type
           rdf:resource="http://purl.org/dc/dcmitype/StillImage" />
        <dc:title />
      </cc:Work>
    </rdf:RDF>
  </metadata>
  <defs
     id="defs10" />
  <sodipodi:namedview
     pagecolor="#676767"
     bordercolor="#cc0000"
     borderopacity="1"
     objecttolerance="10"
     gridtolerance="10"
     guidetolerance="10"
     inkscape:pageopacity="0"
     inkscape:pageshadow="2"
     inkscape:window-width="1859"
     inkscape:window-height="1202"
     id="namedview8"
     showgrid="false"
     inkscape:zoom="27.812867"
     inkscape:cx="11.520129"
     inkscape:cy="14.662845"
     inkscape:window-x="643"
     inkscape:window-y="69"
     inkscape:window-maximized="0"
     inkscape:current-layer="svg6"
     inkscape:snap-center="true"
     borderlayer="true"
     inkscape:showpageshadow="false"
     inkscape:snap-page="true"
     inkscape:snap-bbox="true"
     inkscape:bbox-nodes="true"
     showguides="true"
     inkscape:guide-bbox="true">
    <sodipodi:guide
       position="12,22.293061"
       orientation="1,0"
       id="guide819"
       inkscape:locked="false" />
  </sodipodi:namedview>
  <path
     d="M 0,22.1763 H 24 L 12,1.3114386 Z"
     id="path4-3"
     inkscape:connector-curvature="0"
     sodipodi:nodetypes="cccc"
     style="fill:#ffffff;fill-opacity:1;stroke:none;stroke-width:1.09452391" />
  <path
     d="M 2.6305314,20.691179 H 21.369468 L 12,4.4001235 Z"
     id="path4-3-3"
     inkscape:connector-curvature="0"
     sodipodi:nodetypes="cccc"
     style="opacity:0.66000001;fill:#ff3802;fill-opacity:1;stroke:none;stroke-width:0.85459232;stroke-opacity:1" />
  <g
     id="g828"
     transform="matrix(0.42042601,0,0,0.42042601,8.005953,9.4315258)"
     style="opacity:1">
    <path
       id="path814"
       d="M 0,0 H 24 V 24 H 0 Z"
       inkscape:connector-curvature="0"
       style="fill:none" />
    <path
       id="path816"
       d="m 16.49,15.5 v -1.75 l -2.49,2.5 2.49,2.5 V 17 H 22 v -1.5 z m 3.02,4.25 H 14 v 1.5 h 5.51 V 23 L 22,20.5 19.51,18 Z M 9.5,5.5 c 1.1,0 2,-0.9 2,-2 0,-1.1 -0.9,-2 -2,-2 -1.1,0 -2,0.9 -2,2 0,1.1 0.9,2 2,2 z M 5.75,8.9 3,23 H 5.1 L 6.85,15 9,17 v 6 h 2 v -7.55 l -2.05,-2.05 0.6,-3 C 10.85,12 12.8,13 15,13 V 11 C 13.15,11 11.55,10 10.65,8.55 L 9.7,6.95 C 9.35,6.35 8.7,6 8,6 7.75,6 7.5,6.05 7.25,6.15 L 2,8.3 V 13 H 4 V 9.65 L 5.75,8.9"
       inkscape:connector-curvature="0"
       style="fill:#ffffff;fill-opacity:0.87058824" />
  </g>
</svg>
